<svg xmlns="http://www.w3.org/2000/svg" viewBox="0 0 339.41122 368.40261"><g style="line-height:125%;-inkscape-font-specification:'Bebas, Normal';text-align:start" font-size="45.8687" font-family="Bebas" letter-spacing="0" word-spacing="0" fill="#282828"><path d="M21.1454 367.914v-40.852h9.2193q3.6487 0 6.5806 1.9222 2.5085 1.6288 3.5835 5.0494.5864 1.8244.5864 4.3328 0 4.1047-2.1827 6.5806-.912 1.0425-2.15 1.5963 2.0523.782 3.4857 3.0948.9447 1.5638 1.4008 4.0397.228 1.2705.228 2.8342 0 3.8766-1.466 6.5805-1.14 2.1175-3.225 3.388-2.3456 1.4335-4.6586 1.4335h-11.402zm6.6457-6.092h2.5737q3.1274 0 4.3328-3.225.4235-1.1078.4235-2.5412 0-3.4206-1.303-4.9843-1.173-1.4334-3.4533-1.4334H27.791v12.184zm0-18.0803h2.5737q2.8668 0 3.844-2.8017.3585-1.0425.3585-2.5736 0-2.541-1.238-3.844-1.1402-1.2054-2.9645-1.2054H27.791v10.4247zM54.0565 358.5317l-1.4986 9.3823H46.14l6.939-40.8193h8.47l6.8413 40.8193h-6.4503l-1.466-9.3823h-6.4177zm3.225-22.0873l-2.2803 16.093h4.5608l-2.2804-16.093zM92.123 357.75q.0652 4.2675-2.2153 7.2972-1.4985 2.0523-4.235 2.8993-1.466.456-3.4206.456-3.616 0-5.994-1.7916-1.9873-1.466-3.16-3.9746-1.1403-2.541-1.3358-5.7987l5.864-.4235q.3908 3.551 1.8894 5.1472 1.1076 1.2054 2.541 1.1402 2.0198-.0652 3.2252-1.9872.619-.9447.619-2.704 0-2.541-2.313-5.0494l-5.473-5.1798q-3.0623-2.9645-4.3328-5.31-1.3682-2.6388-1.3682-5.7336 0-5.5707 3.7463-8.4375 2.313-1.7265 5.7337-1.7265 3.2903 0 5.636 1.466 1.8242 1.1402 2.9318 3.1925 1.1402 2.0524 1.3683 4.7237l-5.8965 1.075q-.2606-2.5084-1.4334-3.9092-.847-1.01-2.4434-1.01-1.694 0-2.5736 1.4987-.7167 1.2053-.7167 2.997 0 2.8017 2.4107 5.701.9122 1.1077 2.7365 2.6062 2.15 1.7918 2.8342 2.5085 2.2804 2.2803 3.5184 4.4955.5865 1.0425.9448 1.922.8796 2.1828.9122 3.9094zM97.2946 367.914v-40.852h17.5266v6.1572h-11.3695v11.174h8.3072v6.1897h-8.3073v11.174h11.3695v6.157H97.2946zM124.2767 367.914v-31.437h-5.2124v-4.3002q2.2153-.2607 4.2025-1.6615 2.0198-1.4334 2.8994-3.4532h4.3002v40.852h-6.1897zM148.103 337.1936v-1.01q0-1.4984-.8146-2.5083-.7818-1.0425-2.2478-1.0425-1.466 0-2.2804 1.0425-.782 1.01-.782 2.5084v8.1443q2.1177-1.8894 4.6587-1.8894 4.072 0 6.0918 2.8342 1.7918 2.476 1.7918 6.8738v7.004h-.0326q-.1955 3.9093-2.8343 6.548-2.606 2.639-6.4177 2.639-4.072 0-6.711-2.8995-2.5735-2.8015-2.5735-6.841v-22.283q0-2.997 1.4334-5.4078 1.466-2.4107 4.1372-3.5835 1.694-.7818 3.7138-.7818 4.0396 0 6.711 2.9318 2.5735 2.8017 2.5735 6.8413v.8796h-6.4177zm-6.092 21.3055q0 1.4987.7492 2.476.8144 1.075 2.2804 1.075 1.466 0 2.2804-1.075.782-.9773.782-2.476v-7.5578q0-1.759-1.3032-2.932-.619-.5537-1.7266-.5537-1.5963 0-2.4107 1.2705-.6516 1.0424-.6516 2.313v7.46zM167.2623 367.914v-40.852h9.2194q3.6486 0 6.5806 1.9222 2.5084 1.6288 3.5835 5.0494.5864 1.8244.5864 4.3328 0 4.1047-2.1827 6.5806-.9122 1.0425-2.15 1.5963 2.0523.782 3.4857 3.0948.9447 1.5638 1.4008 4.0397.228 1.2705.228 2.8342 0 3.8766-1.466 6.5805-1.1402 2.1175-3.225 3.388-2.3457 1.4335-4.6586 1.4335h-11.402zm6.6458-6.092h2.5737q3.1274 0 4.3327-3.225.4236-1.1078.4236-2.5412 0-3.4206-1.303-4.9843-1.173-1.4334-3.4533-1.4334h-2.5736v12.184zm0-18.0803h2.5737q2.8668 0 3.844-2.8017.3584-1.0425.3584-2.5736 0-2.541-1.2378-3.844-1.1402-1.2054-2.9645-1.2054h-2.5736v10.4247zM203.0728 368.37q-4.072 0-6.9063-2.8342t-2.8343-6.8738v-31.5673h6.0268v31.5022q0 1.466 1.0425 2.5083 1.0425 1.01 2.5084 1.01 1.466 0 2.4758-1.01 1.0425-1.0424 1.0425-2.5084v-31.5023h6.4177v31.5673q0 4.1048-2.8668 6.9064-2.8668 2.8016-6.9064 2.8016zM224.4842 367.914h-6.157v-40.8193h6.157v40.8193zM246.7507 367.914h-16.7772v-40.8193h6.157v34.6947h10.6202v6.1246zM270.3774 358.1408q0 4.0396-2.8343 6.9064-2.834 2.8668-6.841 2.8668h-9.6755v-40.852h9.6754q4.0395 0 6.841 2.867 2.8344 2.8667 2.8344 6.8737v21.338zm-13.1938 3.6812h3.7138q1.466 0 2.476-1.0424 1.0098-1.075 1.0098-2.5085v-21.3705q0-1.466-1.0425-2.5085-1.01-1.0425-2.4433-1.0425h-3.7138v28.4725zM275.7974 367.914v-40.852h17.5265v6.1572h-11.3695v11.174h8.3072v6.1897h-8.3072v11.174h11.3694v6.157h-17.5266zM307.32 327.0947q5.147 0 7.5578 2.8342 2.1176 2.4758 2.1176 6.9063v5.929q0 4.3328-3.2903 7.33l4.561 17.8197h-6.646l-3.7463-15.409q-.2606.0325-.5538.0325h-3.551v15.3765h-6.157v-40.8193h9.708zm3.6812 9.8383q0-3.551-3.5184-3.551h-3.7138v13.0636h3.7138q1.466 0 2.476-1.0425 1.0424-1.0424 1.0424-2.5083v-5.9617z"/></g><path d="M70.7107 141.4213l35.3553-35.3553 35.3554 35.3554-35.3554 35.3553z" fill="#e8e8e8"/><path d="M0 141.4213l42.78-42.78 35.3553 35.3554-42.78 42.78z" fill="#181818"/><path d="M35.3553 106.066l39.156-39.156 35.3554 35.3553-39.156 39.156z" fill="#282828"/><path d="M106.066 106.066l43.1335-43.1335 35.3554 35.3553-43.1336 43.1335z" fill="#d8d8d8"/><path d="M96.6968 238.1182l35.3554-35.3554 44.7245 44.7245-35.3554 35.3554z" fill="#82c1b9"/><path d="M141.4214 70.7107l35.3553-35.3554 41.189 41.189-35.3554 35.3553z" fill="#b8b8b8"/><path d="M176.7767 106.066l35.3553-35.3553 35.3554 35.3553-35.3554 35.3553z" fill="#9fb575"/><path d="M35.3553 176.7767l42.78-42.78 42.073 42.073-42.78 42.7798z" fill="#f8f8f8"/><path d="M70.7107 212.132l41.631-41.631 35.3552 35.3554-41.631 41.631z" fill="#ae4544"/><path d="M70.7107 141.4213l35.3553-35.3553 41.7193 41.7193-35.3553 35.3553z" fill="#e8e8e8"/><path d="M70.7107 70.7107l43.1335-43.1336 35.3553 35.3555-43.1335 43.1335z" fill="#383838"/><path d="M106.066 176.7766l35.3553-35.3553 35.3554 35.3553-35.3554 35.3554z" fill="#df9560"/><path d="M197.99 268.7005l43.1334-43.1335 35.3553 35.3553-43.1335 43.1335z" fill="#78afc0"/><path d="M197.99 197.99l35.3552-35.3555 39.598 39.598-35.3553 35.3553z" fill="#f9c990"/><path d="M233.3452 233.3452l42.78-42.78 35.3553 35.3554-42.78 42.78z" fill="#bc8bac"/><path d="M268.7006 197.99l35.3553-35.3555L339.411 197.99 304.056 233.345z" fill="#a4684b"/><path d="M106.066 35.3553L141.4214 0l35.3553 35.3553-35.3553 35.3554z" fill="#585858"/></svg>