<?xml version="1.0" encoding="UTF-8" standalone="no"?>
<!-- Created with Inkscape (http://www.inkscape.org/) -->

<svg
   xmlns:dc="http://purl.org/dc/elements/1.1/"
   xmlns:cc="http://creativecommons.org/ns#"
   xmlns:rdf="http://www.w3.org/1999/02/22-rdf-syntax-ns#"
   xmlns:svg="http://www.w3.org/2000/svg"
   xmlns="http://www.w3.org/2000/svg"
   xmlns:sodipodi="http://sodipodi.sourceforge.net/DTD/sodipodi-0.dtd"
   xmlns:inkscape="http://www.inkscape.org/namespaces/inkscape"
   width="95.789391mm"
   height="103.97141mm"
   viewBox="0 0 339.41122 368.40261"
   id="svg4159"
   version="1.1"
   inkscape:version="0.91 r13725"
   sodipodi:docname="base16builder.svg"
   inkscape:export-filename="D:\Google Drive\SVG\Base16 Builder\base16builder.png"
   inkscape:export-xdpi="476"
   inkscape:export-ydpi="476">
  <defs
     id="defs4161" />
  <sodipodi:namedview
     id="base"
     pagecolor="#ffffff"
     bordercolor="#666666"
     borderopacity="1.0"
     inkscape:pageopacity="0.0"
     inkscape:pageshadow="2"
     inkscape:zoom="2.8284271"
     inkscape:cx="-46.919493"
     inkscape:cy="139.83163"
     inkscape:document-units="px"
     inkscape:current-layer="layer1"
     showgrid="false"
     inkscape:snap-smooth-nodes="true"
     inkscape:snap-midpoints="true"
     inkscape:snap-intersection-paths="true"
     inkscape:window-width="3840"
     inkscape:window-height="2050"
     inkscape:window-x="-12"
     inkscape:window-y="-12"
     inkscape:window-maximized="1"
     fit-margin-top="0"
     fit-margin-left="0"
     fit-margin-right="0"
     fit-margin-bottom="0" />
  <metadata
     id="metadata4164">
    <rdf:RDF>
      <cc:Work
         rdf:about="">
        <dc:format>image/svg+xml</dc:format>
        <dc:type
           rdf:resource="http://purl.org/dc/dcmitype/StillImage" />
        <dc:title></dc:title>
      </cc:Work>
    </rdf:RDF>
  </metadata>
  <g
     inkscape:label="Ebene 1"
     inkscape:groupmode="layer"
     id="layer1"
     transform="translate(-139.24209,-119.21748)">
    <g
       style="font-style:normal;font-variant:normal;font-weight:normal;font-stretch:normal;font-size:45.86872101px;line-height:125%;font-family:Bebas;-inkscape-font-specification:'Bebas, Normal';text-align:start;letter-spacing:0px;word-spacing:0px;writing-mode:lr-tb;text-anchor:start;fill:#282828;fill-opacity:1;stroke:none;stroke-width:1px;stroke-linecap:butt;stroke-linejoin:miter;stroke-opacity:1"
       id="text4870"
       transform="translate(-12.146446,0)">
      <path
         d="m 172.5339,487.13144 0,-40.85183 9.21935,0 q 3.64865,0 6.5806,1.92206 2.50845,1.62886 3.58349,5.04946 0.58639,1.82433 0.58639,4.33277 0,4.10473 -2.18267,6.5806 -0.91216,1.04247 -2.1501,1.59629 2.05237,0.78185 3.48577,3.09483 0.94474,1.56371 1.40082,4.03958 0.22804,1.27051 0.22804,2.83421 0,3.87669 -1.46598,6.5806 -1.1402,2.11752 -3.22514,3.38803 -2.34556,1.4334 -4.65854,1.4334 l -11.40203,0 z m 6.64575,-6.09194 2.5736,0 q 3.12742,0 4.33277,-3.22514 0.42351,-1.10763 0.42351,-2.54103 0,-3.42061 -1.30309,-4.98431 -1.17278,-1.4334 -3.45319,-1.4334 l -2.5736,0 0,12.18388 z m 0,-18.08036 2.5736,0 q 2.8668,0 3.84411,-2.80164 0.35835,-1.04247 0.35835,-2.5736 0,-2.54102 -1.23793,-3.84411 -1.1402,-1.20535 -2.96453,-1.20535 l -2.5736,0 0,10.4247 z"
         id="path4977"
         inkscape:connector-curvature="0" />
      <path
         d="m 205.44503,477.7492 -1.49855,9.38224 -6.41771,0 6.93895,-40.81925 8.47007,0 6.84122,40.81925 -6.45029,0 -1.46597,-9.38224 -6.41772,0 z m 3.22515,-22.08735 -2.28041,16.09314 4.56081,0 -2.2804,-16.09314 z"
         id="path4979"
         inkscape:connector-curvature="0" />
      <path
         d="m 243.51151,476.96735 q 0.0652,4.26761 -2.21525,7.29729 -1.49855,2.05237 -4.23504,2.89938 -1.46597,0.45608 -3.4206,0.45608 -3.61607,0 -5.99421,-1.79175 -1.98721,-1.46597 -3.15999,-3.97442 -1.1402,-2.54102 -1.33567,-5.79874 l 5.8639,-0.42351 q 0.39093,3.55092 1.88948,5.1472 1.10763,1.20536 2.54102,1.1402 2.01979,-0.0652 3.22515,-1.98721 0.61896,-0.94473 0.61896,-2.7039 0,-2.54103 -2.31298,-5.04947 -1.82432,-1.7266 -5.47297,-5.17978 -3.06226,-2.96453 -4.33277,-5.31009 -1.36824,-2.63875 -1.36824,-5.73359 0,-5.5707 3.74638,-8.4375 2.31298,-1.72659 5.73359,-1.72659 3.2903,0 5.63586,1.46598 1.82432,1.1402 2.93195,3.19256 1.1402,2.05237 1.36824,4.7237 l -5.89648,1.07505 q -0.26062,-2.50845 -1.4334,-3.90927 -0.847,-1.00989 -2.44329,-1.00989 -1.69401,0 -2.5736,1.49855 -0.7167,1.20536 -0.7167,2.9971 0,2.80164 2.41072,5.70102 0.91216,1.10762 2.73648,2.60617 2.1501,1.79175 2.83422,2.50845 2.28041,2.28041 3.51834,4.49566 0.58639,1.04247 0.94474,1.92205 0.87959,2.18268 0.91216,3.90927 z"
         id="path4981"
         inkscape:connector-curvature="0" />
      <path
         d="m 248.68315,487.13144 0,-40.85183 17.52654,0 0,6.15709 -11.36945,0 0,11.17399 8.30719,0 0,6.18967 -8.30719,0 0,11.17399 11.36945,0 0,6.15709 -17.52654,0 z"
         id="path4983"
         inkscape:connector-curvature="0" />
      <path
         d="m 275.66522,487.13144 0,-31.43701 -5.21235,0 0,-4.3002 q 2.21525,-0.26062 4.20246,-1.66144 2.01979,-1.43339 2.89937,-3.45318 l 4.30019,0 0,40.85183 -6.18967,0 z"
         id="path4985"
         inkscape:connector-curvature="0" />
      <path
         d="m 299.49139,456.41112 0,-1.00989 q 0,-1.49855 -0.81443,-2.50845 -0.78186,-1.04247 -2.24783,-1.04247 -1.46598,0 -2.28041,1.04247 -0.78185,1.0099 -0.78185,2.50845 l 0,8.1443 q 2.11752,-1.88947 4.65854,-1.88947 4.07215,0 6.09194,2.83421 1.79175,2.47587 1.79175,6.8738 l 0,7.0041 -0.0326,0 q -0.19546,3.90926 -2.83422,6.54802 -2.60618,2.63875 -6.41771,2.63875 -4.07215,0 -6.71091,-2.89937 -2.5736,-2.80164 -2.5736,-6.84121 l 0,-22.28282 q 0,-2.9971 1.4334,-5.40782 1.46598,-2.41071 4.13731,-3.58349 1.69401,-0.78186 3.7138,-0.78186 4.03958,0 6.71091,2.93195 2.5736,2.80164 2.5736,6.84122 l 0,0.87958 -6.41771,0 z m -6.09194,21.3055 q 0,1.49856 0.74927,2.47587 0.81443,1.07505 2.28041,1.07505 1.46597,0 2.2804,-1.07505 0.78186,-0.97731 0.78186,-2.47587 l 0,-7.55791 q 0,-1.75917 -1.30309,-2.93195 -0.61897,-0.55381 -1.7266,-0.55381 -1.59628,0 -2.41071,1.27051 -0.65154,1.04247 -0.65154,2.31298 l 0,7.46018 z"
         id="path4987"
         inkscape:connector-curvature="0" />
      <path
         d="m 318.65086,487.13144 0,-40.85183 9.21935,0 q 3.64865,0 6.5806,1.92206 2.50845,1.62886 3.58349,5.04946 0.58639,1.82433 0.58639,4.33277 0,4.10473 -2.18267,6.5806 -0.91216,1.04247 -2.1501,1.59629 2.05237,0.78185 3.48577,3.09483 0.94473,1.56371 1.40082,4.03958 0.22804,1.27051 0.22804,2.83421 0,3.87669 -1.46598,6.5806 -1.1402,2.11752 -3.22514,3.38803 -2.34556,1.4334 -4.65854,1.4334 l -11.40203,0 z m 6.64575,-6.09194 2.5736,0 q 3.12741,0 4.33277,-3.22514 0.42351,-1.10763 0.42351,-2.54103 0,-3.42061 -1.30309,-4.98431 -1.17278,-1.4334 -3.45319,-1.4334 l -2.5736,0 0,12.18388 z m 0,-18.08036 2.5736,0 q 2.8668,0 3.84411,-2.80164 0.35835,-1.04247 0.35835,-2.5736 0,-2.54102 -1.23793,-3.84411 -1.1402,-1.20535 -2.96453,-1.20535 l -2.5736,0 0,10.4247 z"
         id="path4989"
         inkscape:connector-curvature="0" />
      <path
         d="m 354.46136,487.58752 q -4.07215,0 -6.90637,-2.83422 -2.83421,-2.83422 -2.83421,-6.87379 l 0,-31.56732 6.02678,0 0,31.50217 q 0,1.46597 1.04247,2.50844 1.04247,1.00989 2.50845,1.00989 1.46597,0 2.47587,-1.00989 1.04247,-1.04247 1.04247,-2.50844 l 0,-31.50217 6.41771,0 0,31.56732 q 0,4.10473 -2.8668,6.90637 -2.86679,2.80164 -6.90637,2.80164 z"
         id="path4991"
         inkscape:connector-curvature="0" />
      <path
         d="m 375.87274,487.13144 -6.15709,0 0,-40.81925 6.15709,0 0,40.81925 z"
         id="path4993"
         inkscape:connector-curvature="0" />
      <path
         d="m 398.13928,487.13144 -16.77727,0 0,-40.81925 6.15709,0 0,34.69473 10.62018,0 0,6.12452 z"
         id="path4995"
         inkscape:connector-curvature="0" />
      <path
         d="m 421.7659,477.35827 q 0,4.03958 -2.83422,6.90637 -2.83421,2.8668 -6.84121,2.8668 l -9.67544,0 0,-40.85183 9.67544,0 q 4.03957,0 6.84121,2.86679 2.83422,2.8668 2.83422,6.8738 l 0,21.33807 z m -13.19377,3.68123 3.7138,0 q 1.46598,0 2.47587,-1.04247 1.00989,-1.07505 1.00989,-2.50845 l 0,-21.37065 q 0,-1.46598 -1.04247,-2.50845 -1.00989,-1.04247 -2.44329,-1.04247 l -3.7138,0 0,28.47249 z"
         id="path4997"
         inkscape:connector-curvature="0" />
      <path
         d="m 427.18592,487.13144 0,-40.85183 17.52655,0 0,6.15709 -11.36945,0 0,11.17399 8.30719,0 0,6.18967 -8.30719,0 0,11.17399 11.36945,0 0,6.15709 -17.52655,0 z"
         id="path4999"
         inkscape:connector-curvature="0" />
      <path
         d="m 458.70846,446.31219 q 5.1472,0 7.55792,2.83421 2.11752,2.47587 2.11752,6.90637 l 0,5.92906 q 0,4.33277 -3.2903,7.32987 l 4.56081,17.81974 -6.64575,0 -3.74638,-15.40902 q -0.26062,0.0326 -0.55382,0.0326 l -3.55091,0 0,15.37645 -6.1571,0 0,-40.81925 9.70801,0 z m 3.68123,9.83832 q 0,-3.55092 -3.51834,-3.55092 l -3.7138,0 0,13.06346 3.7138,0 q 1.46598,0 2.47587,-1.04247 1.04247,-1.04247 1.04247,-2.50844 l 0,-5.96163 z"
         id="path5001"
         inkscape:connector-curvature="0" />
    </g>
    <g
       id="g4181"
       inkscape:transform-center-y="10.429815"
       transform="matrix(0.70710678,-0.70710678,0.70710678,0.70710678,-100.34926,298.36645)"
       inkscape:transform-center-x="-28.107495">
      <path
         inkscape:connector-curvature="0"
         id="rect4707-77-8"
         d="m 246.09413,192.73917 50,0 0,50.00007 -49.99999,-1e-5 z"
         style="opacity:1;fill:#e8e8e8;fill-opacity:1;stroke:none;stroke-width:28;stroke-linecap:butt;stroke-linejoin:miter;stroke-miterlimit:4;stroke-dasharray:none;stroke-dashoffset:0;stroke-opacity:1" />
      <path
         inkscape:connector-curvature="0"
         id="rect4707-8"
         d="m 196.09414,142.7392 60.5,0 0,50 -60.5,0 z"
         style="opacity:1;fill:#181818;fill-opacity:1;stroke:none;stroke-width:28;stroke-linecap:butt;stroke-linejoin:miter;stroke-miterlimit:4;stroke-dasharray:none;stroke-dashoffset:0;stroke-opacity:1" />
      <path
         inkscape:connector-curvature="0"
         id="rect4707-6-5"
         d="m 246.09414,142.73921 55.37499,-1e-5 0,50 -55.375,0 z"
         style="opacity:1;fill:#282828;fill-opacity:1;stroke:none;stroke-width:28;stroke-linecap:butt;stroke-linejoin:miter;stroke-miterlimit:4;stroke-dasharray:none;stroke-dashoffset:0;stroke-opacity:1" />
      <path
         inkscape:connector-curvature="0"
         id="rect4707-3-4"
         d="m 296.09413,192.7392 61,0 0,50.00001 -61,0 z"
         style="opacity:1;fill:#d8d8d8;fill-opacity:1;stroke:none;stroke-width:28;stroke-linecap:butt;stroke-linejoin:miter;stroke-miterlimit:4;stroke-dasharray:none;stroke-dashoffset:0;stroke-opacity:1" />
      <path
         inkscape:connector-curvature="0"
         id="rect4707-7-0"
         d="m 196.09414,279.48917 50,0 0,63.25 -50,0 z"
         style="opacity:1;fill:#82c1b9;fill-opacity:1;stroke:none;stroke-width:28;stroke-linecap:butt;stroke-linejoin:miter;stroke-miterlimit:4;stroke-dasharray:none;stroke-dashoffset:0;stroke-opacity:1" />
      <path
         inkscape:connector-curvature="0"
         id="rect4707-31-9"
         d="m 346.09413,192.7392 50,0 0,58.25001 -50,0 z"
         style="opacity:1;fill:#b8b8b8;fill-opacity:1;stroke:none;stroke-width:28;stroke-linecap:butt;stroke-linejoin:miter;stroke-miterlimit:4;stroke-dasharray:none;stroke-dashoffset:0;stroke-opacity:1" />
      <path
         inkscape:connector-curvature="0"
         id="rect4707-33-1"
         d="m 346.09413,242.73921 50,0 0,50 -50,0 z"
         style="opacity:1;fill:#9fb575;fill-opacity:1;stroke:none;stroke-width:28;stroke-linecap:butt;stroke-linejoin:miter;stroke-miterlimit:4;stroke-dasharray:none;stroke-dashoffset:0;stroke-opacity:1" />
      <path
         inkscape:connector-curvature="0"
         id="rect4707-70-1"
         d="m 196.09414,192.7392 60.5,0 0,59.5 -60.5,0 z"
         style="opacity:1;fill:#f8f8f8;fill-opacity:1;stroke:none;stroke-width:28;stroke-linecap:butt;stroke-linejoin:miter;stroke-miterlimit:4;stroke-dasharray:none;stroke-dashoffset:0;stroke-opacity:1" />
      <path
         inkscape:connector-curvature="0"
         id="rect4707-52-9"
         d="m 196.09414,242.73917 58.875,0 0,50 -58.875,0 z"
         style="opacity:1;fill:#ae4544;fill-opacity:1;stroke:none;stroke-width:28;stroke-linecap:butt;stroke-linejoin:miter;stroke-miterlimit:4;stroke-dasharray:none;stroke-dashoffset:0;stroke-opacity:1" />
      <path
         inkscape:connector-curvature="0"
         id="rect4707-77-0"
         d="m 246.09413,192.73917 50,0 0,59.00001 -49.99999,-1e-5 z"
         style="opacity:1;fill:#e8e8e8;fill-opacity:1;stroke:none;stroke-width:28;stroke-linecap:butt;stroke-linejoin:miter;stroke-miterlimit:4;stroke-dasharray:none;stroke-dashoffset:0;stroke-opacity:1" />
      <path
         inkscape:connector-curvature="0"
         id="rect4707-30-5"
         d="m 296.09413,142.7392 61,0 0,50 -61,0 z"
         style="opacity:1;fill:#383838;fill-opacity:1;stroke:none;stroke-width:28;stroke-linecap:butt;stroke-linejoin:miter;stroke-miterlimit:4;stroke-dasharray:none;stroke-dashoffset:0;stroke-opacity:1" />
      <path
         inkscape:connector-curvature="0"
         id="rect4707-63-1"
         d="m 246.09414,242.73917 50,0 0,50 -50,0 z"
         style="opacity:1;fill:#df9560;fill-opacity:1;stroke:none;stroke-width:28;stroke-linecap:butt;stroke-linejoin:miter;stroke-miterlimit:4;stroke-dasharray:none;stroke-dashoffset:0;stroke-opacity:1" />
      <path
         inkscape:connector-curvature="0"
         id="rect4707-0-38"
         d="m 246.09414,372.73914 61,0 0,50 -61,0 z"
         style="opacity:1;fill:#78afc0;fill-opacity:1;stroke:none;stroke-width:28;stroke-linecap:butt;stroke-linejoin:miter;stroke-miterlimit:4;stroke-dasharray:none;stroke-dashoffset:0;stroke-opacity:1" />
      <path
         inkscape:connector-curvature="0"
         id="rect4707-5-2"
         d="m 296.09413,322.73917 50,0 0,56.00001 -49.99999,-10e-6 z"
         style="opacity:1;fill:#f9c990;fill-opacity:1;stroke:none;stroke-width:28;stroke-linecap:butt;stroke-linejoin:miter;stroke-miterlimit:4;stroke-dasharray:none;stroke-dashoffset:0;stroke-opacity:1" />
      <path
         inkscape:connector-curvature="0"
         id="rect4707-0-7-7"
         d="m 296.09414,372.73917 60.49999,10e-6 10e-6,49.99999 -60.5,0 z"
         style="opacity:1;fill:#bc8bac;fill-opacity:1;stroke:none;stroke-width:28;stroke-linecap:butt;stroke-linejoin:miter;stroke-miterlimit:4;stroke-dasharray:none;stroke-dashoffset:0;stroke-opacity:1" />
      <path
         inkscape:connector-curvature="0"
         id="rect4707-0-3-1"
         d="m 346.09413,372.73918 50,0 0,50 -49.99999,-10e-6 z"
         style="opacity:1;fill:#a4684b;fill-opacity:1;stroke:none;stroke-width:28;stroke-linecap:butt;stroke-linejoin:miter;stroke-miterlimit:4;stroke-dasharray:none;stroke-dashoffset:0;stroke-opacity:1" />
      <path
         inkscape:connector-curvature="0"
         id="rect4707-64-9"
         d="m 346.09413,142.7392 50,0 0,50 -50,0 z"
         style="opacity:1;fill:#585858;fill-opacity:1;stroke:none;stroke-width:28;stroke-linecap:butt;stroke-linejoin:miter;stroke-miterlimit:4;stroke-dasharray:none;stroke-dashoffset:0;stroke-opacity:1" />
    </g>
  </g>
</svg>
