<svg xmlns="http://www.w3.org/2000/svg" viewBox="0 0 339.41122 304.05585"><path d="M70.71 141.42l35.356-35.354 35.355 35.355-35.354 35.357z" fill="#e8e8e8"/><path d="M0 141.42l42.78-42.78 35.355 35.357-42.78 42.78z" fill="#181818"/><path d="M35.355 106.066L74.51 66.91l35.357 35.355L70.71 141.42z" fill="#282828"/><path d="M106.066 106.066L149.2 62.932l35.355 35.356-43.134 43.133z" fill="#d8d8d8"/><path d="M96.697 238.118l35.355-35.355 44.725 44.724-35.356 35.356z" fill="#82c1b9"/><path d="M141.42 70.71l35.357-35.355 41.19 41.19L182.61 111.9z" fill="#b8b8b8"/><path d="M176.777 106.066l35.355-35.355 35.355 35.356-35.355 35.355z" fill="#9fb575"/><path d="M35.355 176.777l42.78-42.78 42.073 42.073-42.78 42.78z" fill="#f8f8f8"/><path d="M70.71 212.132l41.632-41.63 35.355 35.354-41.63 41.63z" fill="#ae4544"/><path d="M70.71 141.42l35.356-35.354 41.72 41.72-35.356 35.355z" fill="#e8e8e8"/><path d="M70.71 70.71l43.134-43.133L149.2 62.932l-43.134 43.134z" fill="#383838"/><path d="M106.066 176.777l35.355-35.356 35.357 35.357-35.356 35.355z" fill="#df9560"/><path d="M197.99 268.7l43.133-43.133 35.356 35.355-43.135 43.134z" fill="#78afc0"/><path d="M197.99 197.99l35.355-35.355 39.598 39.598-35.355 35.355z" fill="#f9c990"/><path d="M233.345 233.345l42.78-42.78 35.356 35.356-42.78 42.78z" fill="#bc8bac"/><path d="M268.7 197.99l35.356-35.355 35.355 35.355-35.354 35.355z" fill="#a4684b"/><path d="M106.066 35.355L141.42 0l35.357 35.355L141.42 70.71z" fill="#585858"/></svg>