<svg xmlns="http://www.w3.org/2000/svg" viewBox="0 0 339.41125 364.23119"><path d="M0 141.42l35.355-35.354L70.71 141.42l-35.355 35.357z" fill="#181818"/><path d="M35.355 106.066L70.71 70.71l35.356 35.356L70.71 141.42z" fill="#282828"/><path d="M106.066 106.066L141.42 70.71l35.357 35.356-35.356 35.355z" fill="#d8d8d8"/><path d="M106.066 35.355L141.42 0l35.357 35.355L141.42 70.71z" fill="#585858"/><path d="M106.066 247.487l35.355-35.355 35.357 35.355-35.356 35.356z" fill="#82c1b9"/><path d="M176.777 106.066l35.355-35.355 35.355 35.356-35.355 35.355z" fill="#9fb575"/><path d="M70.71 212.132l35.356-35.355 35.355 35.355-35.354 35.355z" fill="#ae4544"/><path d="M70.71 141.42l35.356-35.354 35.355 35.355-35.354 35.357z" fill="#e8e8e8"/><path d="M35.355 176.777L70.71 141.42l35.356 35.357-35.355 35.355z" fill="#f8f8f8"/><path d="M141.42 70.71l35.357-35.355 35.355 35.356-35.355 35.356z" fill="#b8b8b8"/><path d="M106.066 176.777l35.355-35.356 35.357 35.357-35.356 35.355z" fill="#df9560"/><path d="M70.71 70.71l35.356-35.355L141.42 70.71l-35.354 35.356z" fill="#383838"/><g><path d="M197.99 268.7l35.355-35.355L268.7 268.7l-35.355 35.356z" fill="#78afc0"/><path d="M197.99 197.99l35.355-35.355L268.7 197.99l-35.355 35.355z" fill="#f9c990"/><path d="M233.345 233.345L268.7 197.99l35.356 35.355L268.7 268.7z" fill="#bc8bac"/><path d="M268.7 197.99l35.356-35.355 35.355 35.355-35.354 35.355z" fill="#a4684b"/></g><g style="line-height:125%;-inkscape-font-specification:'Bebas, Normal';text-align:start" font-size="45.869" font-family="Bebas" letter-spacing="0" word-spacing="0" fill="#282828"><path d="M21.145 363.743V322.89h9.22q3.648 0 6.58 1.923 2.51 1.63 3.584 5.05.585 1.824.585 4.332 0 4.105-2.182 6.58-.913 1.043-2.15 1.597 2.052.782 3.485 3.095.945 1.563 1.4 4.04.23 1.27.23 2.833 0 3.877-1.467 6.58-1.14 2.12-3.224 3.39-2.346 1.433-4.66 1.433h-11.4zm6.646-6.092h2.575q3.127 0 4.332-3.225.424-1.107.424-2.54 0-3.42-1.302-4.985-1.173-1.433-3.453-1.433H27.79v12.184zm0-18.08h2.575q2.867 0 3.844-2.8.357-1.044.357-2.575 0-2.54-1.238-3.844-1.14-1.204-2.965-1.204H27.79v10.424zM54.056 354.36l-1.498 9.383H46.14l6.94-40.82h8.47l6.84 40.82h-6.45l-1.466-9.383h-6.418zm3.226-22.087l-2.28 16.093h4.56l-2.28-16.093zM92.123 353.578q.065 4.268-2.215 7.298-1.5 2.052-4.235 2.9-1.466.455-3.42.455-3.617 0-5.995-1.79-1.987-1.467-3.16-3.975-1.14-2.54-1.336-5.8l5.864-.422q.39 3.55 1.89 5.147 1.107 1.205 2.54 1.14 2.02-.065 3.226-1.987.62-.945.62-2.704 0-2.542-2.314-5.05l-5.473-5.18q-3.062-2.965-4.333-5.31-1.368-2.64-1.368-5.734 0-5.57 3.746-8.437 2.313-1.728 5.734-1.728 3.29 0 5.636 1.466 1.824 1.14 2.932 3.193 1.14 2.053 1.368 4.724l-5.897 1.075q-.26-2.51-1.433-3.91-.847-1.01-2.443-1.01-1.694 0-2.574 1.5-.717 1.204-.717 2.996 0 2.8 2.41 5.7.913 1.108 2.738 2.607 2.15 1.792 2.834 2.508 2.28 2.282 3.518 4.497.586 1.043.945 1.922.88 2.182.913 3.908zM97.295 363.743V322.89h17.526v6.158h-11.368v11.174h8.307v6.19h-8.308v11.173h11.37v6.158H97.294zM124.277 363.743v-31.437h-5.213v-4.3q2.216-.26 4.203-1.662 2.02-1.434 2.9-3.453h4.3v40.853h-6.19zM148.103 333.022v-1.01q0-1.498-.815-2.508-.78-1.043-2.247-1.043-1.465 0-2.28 1.044-.782 1.01-.782 2.508v8.145q2.118-1.89 4.66-1.89 4.07 0 6.09 2.834 1.793 2.477 1.793 6.875v7.004h-.032q-.195 3.91-2.834 6.547-2.606 2.64-6.418 2.64-4.072 0-6.71-2.9-2.574-2.802-2.574-6.842v-22.282q0-2.997 1.433-5.408 1.466-2.41 4.137-3.584 1.694-.78 3.714-.78 4.04 0 6.71 2.93 2.575 2.803 2.575 6.843v.88h-6.417zm-6.092 21.306q0 1.498.75 2.476.815 1.075 2.28 1.075 1.467 0 2.28-1.076.783-.978.783-2.476v-7.558q0-1.76-1.303-2.932-.62-.554-1.727-.554-1.596 0-2.41 1.27-.652 1.043-.652 2.314v7.46zM167.262 363.743V322.89h9.22q3.648 0 6.58 1.923 2.51 1.63 3.584 5.05.586 1.824.586 4.332 0 4.105-2.183 6.58-.913 1.043-2.15 1.597 2.052.782 3.485 3.095.945 1.563 1.4 4.04.23 1.27.23 2.833 0 3.877-1.467 6.58-1.14 2.12-3.225 3.39-2.346 1.433-4.66 1.433h-11.4zm6.646-6.092h2.574q3.127 0 4.332-3.225.424-1.107.424-2.54 0-3.42-1.303-4.985-1.173-1.433-3.453-1.433h-2.574v12.184zm0-18.08h2.574q2.866 0 3.844-2.8.358-1.044.358-2.575 0-2.54-1.238-3.844-1.14-1.204-2.964-1.204h-2.574v10.424zM203.073 364.2q-4.072 0-6.907-2.836-2.834-2.834-2.834-6.873v-31.567h6.027v31.502q0 1.466 1.04 2.51 1.044 1.01 2.51 1.01 1.466 0 2.476-1.01 1.042-1.044 1.042-2.51v-31.502h6.418v31.568q0 4.105-2.867 6.907-2.868 2.802-6.907 2.802zM224.484 363.743h-6.157v-40.82h6.157v40.82zM246.75 363.743h-16.777v-40.82h6.158v34.695h10.62v6.125zM270.377 353.97q0 4.04-2.834 6.906-2.834 2.867-6.84 2.867h-9.676V322.89h9.675q4.04 0 6.84 2.867 2.835 2.867 2.835 6.874v21.34zm-13.193 3.68h3.713q1.466 0 2.476-1.042 1.01-1.075 1.01-2.508v-21.37q0-1.467-1.042-2.51-1.01-1.042-2.443-1.042h-3.713v28.473zM275.797 363.743V322.89h17.527v6.158h-11.37v11.174h8.308v6.19h-8.308v11.173h11.37v6.158h-17.527zM307.32 322.923q5.147 0 7.558 2.834 2.117 2.476 2.117 6.907v5.93q0 4.332-3.29 7.33l4.56 17.82h-6.645l-3.746-15.41q-.26.032-.554.032h-3.55v15.377h-6.158v-40.82h9.708zm3.68 9.84q0-3.552-3.517-3.552h-3.714v13.064h3.713q1.466 0 2.476-1.042 1.04-1.043 1.04-2.51v-5.96z"/></g></svg>