<?xml version="1.0" encoding="UTF-8" standalone="no"?>
<svg
   xmlns:dc="http://purl.org/dc/elements/1.1/"
   xmlns:cc="http://creativecommons.org/ns#"
   xmlns:rdf="http://www.w3.org/1999/02/22-rdf-syntax-ns#"
   xmlns:svg="http://www.w3.org/2000/svg"
   xmlns="http://www.w3.org/2000/svg"
   xmlns:sodipodi="http://sodipodi.sourceforge.net/DTD/sodipodi-0.dtd"
   xmlns:inkscape="http://www.inkscape.org/namespaces/inkscape"
   viewBox="0 0 339.41101 304.05599"
   id="svg3420"
   version="1.1"
   inkscape:version="0.91 r13725"
   sodipodi:docname="logo.svg"
   width="339.41101"
   height="304.056">
  <metadata
     id="metadata3464">
    <rdf:RDF>
      <cc:Work
         rdf:about="">
        <dc:format>image/svg+xml</dc:format>
        <dc:type
           rdf:resource="http://purl.org/dc/dcmitype/StillImage" />
        <dc:title></dc:title>
      </cc:Work>
    </rdf:RDF>
  </metadata>
  <defs
     id="defs3462" />
  <sodipodi:namedview
     pagecolor="#ffffff"
     bordercolor="#666666"
     borderopacity="1"
     objecttolerance="10"
     gridtolerance="10"
     guidetolerance="10"
     inkscape:pageopacity="0"
     inkscape:pageshadow="2"
     inkscape:window-width="1920"
     inkscape:window-height="963"
     id="namedview3460"
     showgrid="false"
     fit-margin-top="0"
     fit-margin-left="0"
     fit-margin-right="0"
     fit-margin-bottom="0"
     inkscape:zoom="2.1085508"
     inkscape:cx="170.86823"
     inkscape:cy="144.8621"
     inkscape:window-x="1920"
     inkscape:window-y="27"
     inkscape:window-maximized="1"
     inkscape:current-layer="svg3420" />
  <path
     d="M 0,141.42 35.355,106.066 70.71,141.42 35.355,176.777 Z"
     id="path3422"
     inkscape:connector-curvature="0"
     style="fill:#181818" />
  <path
     d="M 35.355,106.066 70.71,70.71 106.066,106.066 70.71,141.42 Z"
     id="path3424"
     inkscape:connector-curvature="0"
     style="fill:#282828" />
  <path
     d="m 106.066,106.066 35.354,-35.356 35.357,35.356 -35.356,35.355 z"
     id="path3426"
     inkscape:connector-curvature="0"
     style="fill:#d8d8d8" />
  <path
     d="M 106.066,35.355 141.42,0 176.777,35.355 141.42,70.71 Z"
     id="path3428"
     inkscape:connector-curvature="0"
     style="fill:#585858" />
  <path
     d="m 106.066,247.487 35.355,-35.355 35.357,35.355 -35.356,35.356 z"
     id="path3430"
     inkscape:connector-curvature="0"
     style="fill:#82c1b9" />
  <path
     d="m 176.777,106.066 35.355,-35.355 35.355,35.356 -35.355,35.355 z"
     id="path3432"
     inkscape:connector-curvature="0"
     style="fill:#9fb575" />
  <path
     d="m 70.71,212.132 35.356,-35.355 35.355,35.355 -35.354,35.355 z"
     id="path3434"
     inkscape:connector-curvature="0"
     style="fill:#ae4544" />
  <path
     d="m 70.71,141.42 35.356,-35.354 35.355,35.355 -35.354,35.357 z"
     id="path3436"
     inkscape:connector-curvature="0"
     style="fill:#e8e8e8" />
  <path
     d="M 35.355,176.777 70.71,141.42 106.066,176.777 70.711,212.132 Z"
     id="path3438"
     inkscape:connector-curvature="0"
     style="fill:#f8f8f8" />
  <path
     d="m 141.42,70.71 35.357,-35.355 35.355,35.356 -35.355,35.356 z"
     id="path3440"
     inkscape:connector-curvature="0"
     style="fill:#b8b8b8" />
  <path
     d="m 106.066,176.777 35.355,-35.356 35.357,35.357 -35.356,35.355 z"
     id="path3442"
     inkscape:connector-curvature="0"
     style="fill:#df9560" />
  <path
     d="M 70.71,70.71 106.066,35.355 141.42,70.71 106.066,106.066 Z"
     id="path3444"
     inkscape:connector-curvature="0"
     style="fill:#383838" />
  <g
     id="g3446">
    <path
       d="M 197.99,268.7 233.345,233.345 268.7,268.7 233.345,304.056 Z"
       id="path3448"
       inkscape:connector-curvature="0"
       style="fill:#78afc0" />
    <path
       d="m 197.99,197.99 35.355,-35.355 35.355,35.355 -35.355,35.355 z"
       id="path3450"
       inkscape:connector-curvature="0"
       style="fill:#f9c990" />
    <path
       d="M 233.345,233.345 268.7,197.99 304.056,233.345 268.7,268.7 Z"
       id="path3452"
       inkscape:connector-curvature="0"
       style="fill:#bc8bac" />
    <path
       d="m 268.7,197.99 35.356,-35.355 35.355,35.355 -35.354,35.355 z"
       id="path3454"
       inkscape:connector-curvature="0"
       style="fill:#a4684b" />
  </g>
</svg>
